<svg width="26" height="26" viewBox="0 0 26 26" fill="none" xmlns="http://www.w3.org/2000/svg">
<path d="M23.4283 17.748L18.2832 15.1841L20.2229 12.4577C20.6751 11.821 20.9123 11.1077 20.913 10.3827V6.06667C20.913 4.45769 20.0793 2.91461 18.5954 1.77689C17.1114 0.639165 15.0987 0 13 0C10.9013 0 8.88862 0.639165 7.40464 1.77689C5.92066 2.91461 5.08696 4.45769 5.08696 6.06667V10.3827C5.08767 11.1077 5.32491 11.821 5.77709 12.4577L7.71685 15.1841L2.57175 17.748C1.78101 18.1405 1.13128 18.6787 0.681994 19.3134C0.232713 19.9482 -0.00176729 20.6591 1.0029e-05 21.3813V26H26V21.3813C26.0018 20.6591 25.7673 19.9482 25.318 19.3134C24.8687 18.6787 24.219 18.1405 23.4283 17.748ZM23.7391 24.2667H2.26088V21.3813C2.25982 20.948 2.40052 20.5214 2.6701 20.1406C2.93968 19.7597 3.32954 19.4368 3.80399 19.2013L10.7039 15.7629L7.76192 11.6277C7.49062 11.2457 7.34827 10.8177 7.34783 10.3827V6.06667C7.34783 4.9174 7.94333 3.81519 9.00331 3.00254C10.0633 2.18988 11.501 1.73333 13 1.73333C14.499 1.73333 15.9367 2.18988 16.9967 3.00254C18.0567 3.81519 18.6522 4.9174 18.6522 6.06667V10.3827C18.6517 10.8177 18.5094 11.2457 18.2381 11.6277L15.2962 15.7629L22.1962 19.2013C22.6706 19.4368 23.0604 19.7598 23.33 20.1406C23.5995 20.5214 23.7402 20.948 23.7391 21.3813V24.2667Z" fill="#7F7E7E"/>
</svg>
