<svg width="27" height="26" viewBox="0 0 27 26" fill="none" xmlns="http://www.w3.org/2000/svg">
<path d="M23.9283 17.748L18.7832 15.1841L20.7229 12.4577C21.1751 11.821 21.4123 11.1077 21.413 10.3827V6.06667C21.413 4.45769 20.5793 2.91461 19.0954 1.77689C17.6114 0.639165 15.5987 0 13.5 0C11.4013 0 9.38862 0.639165 7.90464 1.77689C6.42066 2.91461 5.58696 4.45769 5.58696 6.06667V10.3827C5.58767 11.1077 5.82491 11.821 6.27709 12.4577L8.21685 15.1841L3.07175 17.748C2.28101 18.1405 1.63128 18.6787 1.18199 19.3134C0.732713 19.9482 0.498233 20.6591 0.50001 21.3813V26H26.5V21.3813C26.5018 20.6591 26.2673 19.9482 25.818 19.3134C25.3687 18.6787 24.719 18.1405 23.9283 17.748ZM24.2391 24.2667H2.76088V21.3813C2.75982 20.948 2.90052 20.5214 3.1701 20.1406C3.43968 19.7597 3.82954 19.4368 4.30399 19.2013L11.2039 15.7629L8.26192 11.6277C7.99062 11.2457 7.84827 10.8177 7.84783 10.3827V6.06667C7.84783 4.9174 8.44333 3.81519 9.50331 3.00254C10.5633 2.18988 12.001 1.73333 13.5 1.73333C14.999 1.73333 16.4367 2.18988 17.4967 3.00254C18.5567 3.81519 19.1522 4.9174 19.1522 6.06667V10.3827C19.1517 10.8177 19.0094 11.2457 18.7381 11.6277L15.7962 15.7629L22.6962 19.2013C23.1706 19.4368 23.5604 19.7598 23.83 20.1406C24.0995 20.5214 24.2402 20.948 24.2391 21.3813V24.2667Z" fill="#7F7E7E"/>
</svg>
