<svg width="31" height="27" viewBox="0 0 31 27" fill="none" xmlns="http://www.w3.org/2000/svg">
<path d="M29.3514 10.9826L16.0334 0.514445C15.6005 0.174131 15.0303 -0.0100416 14.4421 0.000422699C13.8539 0.010887 13.2933 0.215178 12.8773 0.570596L0.628645 11.0355L6.10352e-05 11.5725V27H11.8032V17.3741H18.2413V27H30.0444V11.5274L29.3514 10.9826ZM14.4883 1.83353C14.5072 1.83353 14.4955 1.83703 14.4874 1.84385C14.479 1.83703 14.4694 1.83353 14.4883 1.83353ZM27.8984 25.1665H20.3873V17.3741C20.3873 16.8878 20.1612 16.4215 19.7587 16.0776C19.3563 15.7338 18.8104 15.5406 18.2413 15.5406H11.8032C11.234 15.5406 10.6882 15.7338 10.2857 16.0776C9.88326 16.4215 9.65716 16.8878 9.65716 17.3741V25.1665H2.14608V12.332L14.4883 1.86705C14.4891 1.86637 14.4892 1.86574 14.4899 1.86505L27.8984 12.332V25.1665Z" fill="url(#paint0_linear_39_157)"/>
<defs>
<linearGradient id="paint0_linear_39_157" x1="5.09686" y1="-31.32" x2="49.1867" y2="0.712033" gradientUnits="userSpaceOnUse">
<stop stop-color="#06B0E5"/>
<stop offset="1" stop-color="white"/>
</linearGradient>
</defs>
</svg>
