<svg width="31" height="27" viewBox="0 0 31 27" fill="none" xmlns="http://www.w3.org/2000/svg">
<path d="M29.3513 10.9826L16.0333 0.514445C15.6004 0.174131 15.0302 -0.0100416 14.4421 0.000422699C13.8539 0.010887 13.2932 0.215178 12.8772 0.570596L0.628584 11.0355L0 11.5725V27H11.8031V17.3741H18.2412V27H30.0443V11.5274L29.3513 10.9826ZM14.4882 1.83353C14.5071 1.83353 14.4954 1.83703 14.4873 1.84385C14.4789 1.83703 14.4693 1.83353 14.4882 1.83353ZM27.8983 25.1665H20.3872V17.3741C20.3872 16.8878 20.1611 16.4215 19.7587 16.0776C19.3562 15.7338 18.8104 15.5406 18.2412 15.5406H11.8031C11.234 15.5406 10.6881 15.7338 10.2857 16.0776C9.8832 16.4215 9.6571 16.8878 9.6571 17.3741V25.1665H2.14602V12.332L14.4882 1.86705C14.4891 1.86637 14.4891 1.86574 14.4898 1.86505L27.8983 12.332V25.1665Z" fill="url(#paint0_linear_31_70)"/>
<defs>
<linearGradient id="paint0_linear_31_70" x1="5.0968" y1="-31.32" x2="49.1866" y2="0.712033" gradientUnits="userSpaceOnUse">
<stop stop-color="#06B0E5"/>
<stop offset="1" stop-color="white"/>
</linearGradient>
</defs>
</svg>
