<svg width="32" height="8" viewBox="0 0 32 8" fill="none" xmlns="http://www.w3.org/2000/svg">
<path d="M31.0041 -8.01735L17.3657 -18.4856C16.9223 -18.8259 16.3385 -19.01 15.7361 -18.9996C15.1338 -18.9891 14.5596 -18.7848 14.1336 -18.4294L1.59024 -7.96447L0.946533 -7.42748V8H13.0337V-1.62588H19.6267V8H31.7138V-7.47257L31.0041 -8.01735ZM15.7834 -17.1665C15.8027 -17.1665 15.7908 -17.163 15.7825 -17.1562C15.7739 -17.163 15.764 -17.1665 15.7834 -17.1665ZM29.5162 6.1665H21.8244V-1.62588C21.8244 -2.11216 21.5928 -2.57851 21.1807 -2.92236C20.7685 -3.26621 20.2095 -3.45938 19.6267 -3.45938H13.0337C12.4508 -3.45938 11.8919 -3.26621 11.4797 -2.92236C11.0676 -2.57851 10.836 -2.11216 10.836 -1.62588V6.1665H3.1442V-6.66801L15.7834 -17.1329C15.7843 -17.1336 15.7843 -17.1343 15.785 -17.135L29.5162 -6.66801V6.1665Z" fill="url(#paint0_linear_41_324)"/>
<defs>
<linearGradient id="paint0_linear_41_324" x1="6.16599" y1="-50.32" x2="50.5696" y2="-17.2837" gradientUnits="userSpaceOnUse">
<stop stop-color="#06B0E5"/>
<stop offset="1" stop-color="white"/>
</linearGradient>
</defs>
</svg>
