<svg width="31" height="27" viewBox="0 0 31 27" fill="none" xmlns="http://www.w3.org/2000/svg">
<path d="M29.9024 10.9826L16.4776 0.514445C16.0412 0.174131 15.4665 -0.0100416 14.8736 0.000422699C14.2807 0.010887 13.7155 0.215178 13.2962 0.570596L0.9493 11.0355L0.315674 11.5725V27H12.2135V17.3741H18.7032V27H30.601V11.5274L29.9024 10.9826ZM14.9201 1.83353C14.9392 1.83353 14.9274 1.83703 14.9192 1.84385C14.9108 1.83703 14.901 1.83353 14.9201 1.83353ZM28.4378 25.1665H20.8664V17.3741C20.8664 16.8878 20.6385 16.4215 20.2328 16.0776C19.8271 15.7338 19.2769 15.5406 18.7032 15.5406H12.2135C11.6398 15.5406 11.0895 15.7338 10.6838 16.0776C10.2782 16.4215 10.0502 16.8878 10.0502 17.3741V25.1665H2.47891V12.332L14.9201 1.86705C14.921 1.86637 14.921 1.86574 14.9217 1.86505L28.4378 12.332V25.1665Z" fill="url(#paint0_linear_31_134)"/>
<defs>
<linearGradient id="paint0_linear_31_134" x1="5.45336" y1="-31.32" x2="49.6509" y2="1.04786" gradientUnits="userSpaceOnUse">
<stop stop-color="#06B0E5"/>
<stop offset="1" stop-color="white"/>
</linearGradient>
</defs>
</svg>
