<svg width="31" height="27" viewBox="0 0 31 27" fill="none" xmlns="http://www.w3.org/2000/svg">
<path d="M29.9023 10.9826L16.4775 0.514445C16.0411 0.174131 15.4664 -0.0100416 14.8735 0.000422699C14.2806 0.010887 13.7154 0.215178 13.2961 0.570596L0.949178 11.0355L0.315552 11.5725V27H12.2134V17.3741H18.7031V27H30.6009V11.5274L29.9023 10.9826ZM14.92 1.83353C14.939 1.83353 14.9273 1.83703 14.9191 1.84385C14.9106 1.83703 14.9009 1.83353 14.92 1.83353ZM28.4376 25.1665H20.8663V17.3741C20.8663 16.8878 20.6384 16.4215 20.2327 16.0776C19.827 15.7338 19.2768 15.5406 18.7031 15.5406H12.2134C11.6396 15.5406 11.0894 15.7338 10.6837 16.0776C10.278 16.4215 10.0501 16.8878 10.0501 17.3741V25.1665H2.47879V12.332L14.92 1.86705C14.9208 1.86637 14.9209 1.86574 14.9216 1.86505L28.4376 12.332V25.1665Z" fill="url(#paint0_linear_125_176)"/>
<defs>
<linearGradient id="paint0_linear_125_176" x1="5.45324" y1="-31.32" x2="49.6507" y2="1.04786" gradientUnits="userSpaceOnUse">
<stop stop-color="#06B0E5"/>
<stop offset="1" stop-color="white"/>
</linearGradient>
</defs>
</svg>
