<svg width="32" height="27" viewBox="0 0 32 27" fill="none" xmlns="http://www.w3.org/2000/svg">
<path d="M31.0041 10.9826L17.3657 0.514445C16.9223 0.174131 16.3385 -0.0100416 15.7361 0.000422699C15.1338 0.010887 14.5596 0.215178 14.1336 0.570596L1.59024 11.0355L0.946533 11.5725V27H13.0337V17.3741H19.6267V27H31.7138V11.5274L31.0041 10.9826ZM15.7834 1.83353C15.8027 1.83353 15.7908 1.83703 15.7825 1.84385C15.7739 1.83703 15.764 1.83353 15.7834 1.83353ZM29.5162 25.1665H21.8244V17.3741C21.8244 16.8878 21.5928 16.4215 21.1807 16.0776C20.7685 15.7338 20.2095 15.5406 19.6267 15.5406H13.0337C12.4508 15.5406 11.8919 15.7338 11.4797 16.0776C11.0676 16.4215 10.836 16.8878 10.836 17.3741V25.1665H3.1442V12.332L15.7834 1.86705C15.7843 1.86637 15.7843 1.86574 15.785 1.86505L29.5162 12.332V25.1665Z" fill="url(#paint0_linear_41_324)"/>
<defs>
<linearGradient id="paint0_linear_41_324" x1="6.16599" y1="-31.32" x2="50.5696" y2="1.71632" gradientUnits="userSpaceOnUse">
<stop stop-color="#06B0E5"/>
<stop offset="1" stop-color="white"/>
</linearGradient>
</defs>
</svg>
